<?xml version="1.0" encoding="UTF-8" standalone="no"?>
<!-- Created with Inkscape (http://www.inkscape.org/) -->

<svg
   version="1.1"
   id="svg2"
   xml:space="preserve"
   width="536.82666"
   height="693.90668"
   viewBox="0 0 536.82666 693.90668"
   sodipodi:docname="HH_cmyk.eps"
   xmlns:inkscape="http://www.inkscape.org/namespaces/inkscape"
   xmlns:sodipodi="http://sodipodi.sourceforge.net/DTD/sodipodi-0.dtd"
   xmlns="http://www.w3.org/2000/svg"
   xmlns:svg="http://www.w3.org/2000/svg"><defs
     id="defs6" /><sodipodi:namedview
     id="namedview4"
     pagecolor="#ffffff"
     bordercolor="#666666"
     borderopacity="1.0"
     inkscape:pageshadow="2"
     inkscape:pageopacity="0.0"
     inkscape:pagecheckerboard="0" /><g
     id="g8"
     inkscape:groupmode="layer"
     inkscape:label="ink_ext_XXXXXX"
     transform="matrix(1.3333333,0,0,-1.3333333,0,693.90667)"><g
       id="g10"
       transform="scale(0.1)"><path
         d="m 1530.05,2417.58 -954.066,557.75 954.066,557.78 z"
         style="fill:#1475b7;fill-opacity:1;fill-rule:nonzero;stroke:none"
         id="path12" /><path
         d="M 2496.14,4090.87 3450.22,3533.1 2496.14,2975.35 Z"
         style="fill:#1d5085;fill-opacity:1;fill-rule:nonzero;stroke:none"
         id="path14" /><path
         d="m 3450.22,2417.58 -954.08,557.71 954.08,557.81 z"
         style="fill:#4ec6ed;fill-opacity:1;fill-rule:nonzero;stroke:none"
         id="path16" /><path
         d="m 2496.14,2975.35 -966.09,557.72 966.09,557.8 z"
         style="fill:#1475b7;fill-opacity:1;fill-rule:nonzero;stroke:none"
         id="path18" /><path
         d="M 1530.05,4648.61 2496.14,4090.87 1530.05,3533.1 Z"
         style="fill:#8ebee3;fill-opacity:1;fill-rule:nonzero;stroke:none"
         id="path20" /><path
         d="m 2496.14,1859.78 -966.09,557.78 966.09,557.79 z"
         style="fill:#8ebee3;fill-opacity:1;fill-rule:nonzero;stroke:none"
         id="path22" /><path
         d="m 1530.05,3533.1 966.09,-557.71 -966.09,-557.81 z"
         style="fill:#1d5085;fill-opacity:1;fill-rule:nonzero;stroke:none"
         id="path24" /><path
         d="M 575.984,4090.89 1530.05,3533.11 575.984,2975.31 Z"
         style="fill:#4ec6ed;fill-opacity:1;fill-rule:nonzero;stroke:none"
         id="path26" /><path
         d="M 575.984,2975.31 V 1867.56 l 954.066,-559.85 v 1109.87 l -954.066,557.73"
         style="fill:#4ec6ed;fill-opacity:1;fill-rule:nonzero;stroke:none"
         id="path28" /><path
         d="M 2496.15,5204.29 V 4088.74 l 954.06,-557.77 v 1115.57 l -954.06,557.75"
         style="fill:#4ec6ed;fill-opacity:1;fill-rule:nonzero;stroke:none"
         id="path30" /><path
         d="m 0,1015.51 c 0,6.99 6.29297,13.29 13.2852,13.29 h 46.1562 c 7.6992,0 13.2969,-6.3 13.2969,-13.29 V 820.398 H 328.672 v 195.112 c 0,6.99 5.59,13.29 13.285,13.29 h 46.152 c 6.993,0 13.286,-6.3 13.286,-13.29 V 552.582 c 0,-6.992 -6.293,-13.293 -13.286,-13.293 h -46.152 c -7.695,0 -13.285,6.301 -13.285,13.293 V 754.66 H 72.7383 V 552.582 c 0,-6.992 -5.5977,-13.293 -13.2969,-13.293 H 13.2852 C 6.29297,539.289 0,545.59 0,552.582 v 462.928"
         style="fill:#1d5085;fill-opacity:1;fill-rule:nonzero;stroke:none"
         id="path32" /><path
         d="m 768.48,1125.98 c 0,21.69 17.477,39.18 39.161,39.18 21.675,0 39.859,-17.49 39.859,-39.18 0,-21.66 -18.184,-39.84 -39.859,-39.84 -21.684,0 -39.161,18.18 -39.161,39.84 z m -160.14,0 c 0,21.69 17.48,39.18 39.16,39.18 21.672,0 39.863,-17.49 39.863,-39.18 0,-21.66 -18.191,-39.84 -39.863,-39.84 -21.68,0 -39.16,18.18 -39.16,39.84 z M 727.211,602.219 c 100,0 181.816,81.121 181.816,181.121 0,99.308 -81.816,182.519 -181.816,182.519 -99.297,0 -181.113,-83.211 -181.113,-182.519 0,-100 81.816,-181.121 181.113,-181.121 z m 0,433.561 c 139.859,0 251.754,-112.589 251.754,-252.44 0,-139.86 -111.895,-251.039 -251.754,-251.039 -139.848,0 -251.039,111.179 -251.039,251.039 0,139.851 111.191,252.44 251.039,252.44"
         style="fill:#1d5085;fill-opacity:1;fill-rule:nonzero;stroke:none"
         id="path34" /><path
         d="m 1274.71,1035.78 c 67.14,0 122.39,-24.47 169.93,-65.042 5.59,-5.59 6.29,-13.968 0.7,-19.566 -10.49,-11.18 -20.98,-21.684 -31.47,-32.871 -5.59,-6.301 -11.17,-5.602 -18.18,0.699 -32.86,28.672 -76.22,47.551 -118.88,47.551 -99.3,0 -175.53,-83.903 -175.53,-181.809 0,-97.191 76.23,-181.113 175.53,-181.113 58.04,0 97.9,20.973 104.9,23.769 v 78.321 h -68.53 c -7.7,0 -13.29,5.601 -13.29,12.59 v 40.562 c 0,7.688 5.59,13.289 13.29,13.289 h 127.26 c 7.01,0 12.59,-6.301 12.59,-13.289 0,-55.949 0.7,-113.289 0.7,-169.23 0,-3.5 -2.8,-9.102 -5.59,-11.192 0,0 -72.02,-46.148 -173.43,-46.148 -139.15,0 -251.74,111.179 -251.74,251.039 0,139.851 112.59,252.44 251.74,252.44"
         style="fill:#1d5085;fill-opacity:1;fill-rule:nonzero;stroke:none"
         id="path36" /><path
         d="m 1511.73,609.922 c 6.29,9.078 11.89,19.578 18.18,28.66 6.3,9.098 16.09,11.887 23.77,5.598 4.21,-3.5 58.05,-48.25 111.9,-48.25 48.24,0 79.02,29.359 79.02,65.039 0,41.953 -36.36,68.531 -105.6,97.203 -71.32,30.058 -127.27,67.129 -127.27,148.25 0,54.547 41.95,129.358 153.14,129.358 69.93,0 122.38,-36.358 129.37,-41.241 5.6,-3.508 11.2,-13.297 4.2,-23.801 -5.6,-8.386 -11.88,-18.168 -17.48,-26.566 -5.6,-9.082 -14.68,-13.281 -24.48,-6.981 -4.89,2.801 -53.83,34.961 -94.41,34.961 -58.74,0 -79.02,-37.062 -79.02,-62.941 0,-39.859 30.77,-64.32 88.81,-88.109 81.13,-32.872 150.35,-71.332 150.35,-156.653 0,-72.719 -65.02,-132.148 -155.94,-132.148 -85.31,0 -139.16,44.75 -150.34,55.238 -6.3,5.59 -11.19,10.5 -4.2,22.383"
         style="fill:#1d5085;fill-opacity:1;fill-rule:nonzero;stroke:none"
         id="path38" /><path
         d="m 1898.39,1012.02 c 0,9.08 7,16.78 16.78,16.78 h 40.56 c 9.09,0 16.78,-7.7 16.78,-16.78 V 818.309 l 197.21,203.481 c 2.79,3.5 7.68,7.01 13.27,7.01 h 52.45 c 12.59,0 19.59,-14.71 9.79,-25.19 L 2043.15,798.031 2257.12,562.352 c 5.6,-6.981 2.11,-23.063 -12.56,-23.063 h -55.96 c -6.98,0 -11.2,2.793 -12.59,4.891 l -203.5,229.371 V 556.07 c 0,-9.101 -7.69,-16.781 -16.78,-16.781 h -40.56 c -9.78,0 -16.78,7.68 -16.78,16.781 v 455.95"
         style="fill:#1d5085;fill-opacity:1;fill-rule:nonzero;stroke:none"
         id="path40" /><path
         d="m 2508.13,602.219 c 99.99,0 181.83,81.121 181.83,181.121 0,99.308 -81.84,182.519 -181.83,182.519 -99.3,0 -181.1,-83.211 -181.1,-182.519 0,-100 81.8,-181.121 181.1,-181.121 z m 0,433.561 c 139.87,0 251.77,-112.589 251.77,-252.44 0,-139.86 -111.9,-251.039 -251.77,-251.039 -139.85,0 -251.05,111.179 -251.05,251.039 0,139.851 111.2,252.44 251.05,252.44"
         style="fill:#1d5085;fill-opacity:1;fill-rule:nonzero;stroke:none"
         id="path42" /><path
         d="m 2839.56,1015.51 c 0,6.99 5.6,13.29 13.28,13.29 h 46.15 c 6.99,0 13.28,-6.3 13.28,-13.29 V 604.332 h 189.51 c 7.72,0 13.31,-6.293 13.31,-13.301 v -38.449 c 0,-6.992 -5.59,-13.293 -13.31,-13.293 h -248.94 c -7.68,0 -13.28,6.301 -13.28,13.293 v 462.928"
         style="fill:#1d5085;fill-opacity:1;fill-rule:nonzero;stroke:none"
         id="path44" /><path
         d="M 3440.91,705.719 3354.9,897.32 h -3.49 l -85.32,-191.601 z m -316.77,-148.25 214.68,470.621 c 2.09,4.2 8.37,7.69 11.89,7.69 h 6.98 c 3.5,0 9.8,-3.49 11.88,-7.69 l 213.3,-470.621 c 4.19,-9.09 -1.4,-18.18 -11.89,-18.18 h -44.06 c -8.39,0 -13.28,4.191 -16.1,10.481 l -43.33,95.812 h -228.68 c -13.98,-32.172 -28.66,-63.641 -42.65,-95.812 -2.09,-4.891 -7.69,-10.481 -16.1,-10.481 h -44.03 c -10.49,0 -16.09,9.09 -11.89,18.18"
         style="fill:#1d5085;fill-opacity:1;fill-rule:nonzero;stroke:none"
         id="path46" /><path
         d="m 3619.88,1023.2 c 0,6.98 6.31,12.58 13.3,12.58 h 17.49 l 303.48,-351.038 h 0.71 v 330.768 c 0,6.99 5.59,13.29 13.27,13.29 h 44.76 c 6.98,0 13.29,-6.3 13.29,-13.29 V 544.879 c 0,-6.981 -6.31,-12.578 -13.29,-12.578 h -18.18 l -303.48,360.828 h -0.71 V 552.582 c 0,-6.992 -5.59,-13.293 -13.3,-13.293 h -44.04 c -6.99,0 -13.3,6.301 -13.3,13.293 V 1023.2"
         style="fill:#1d5085;fill-opacity:1;fill-rule:nonzero;stroke:none"
         id="path48" /><path
         d="m 637.516,355.621 c 0,5.168 4.625,9.801 9.773,9.801 h 33.961 c 5.152,0 9.781,-4.633 9.781,-9.801 V 14.9414 c 0,-5.17968 -4.629,-9.81249 -9.781,-9.81249 h -33.961 c -5.148,0 -9.773,4.63281 -9.773,9.81249 V 355.621"
         style="fill:#1d5085;fill-opacity:1;fill-rule:nonzero;stroke:none"
         id="path50" /><path
         d="m 886.617,355.621 c 0,5.168 4.633,9.801 9.785,9.801 h 33.957 c 5.664,0 9.778,-4.633 9.778,-9.801 v -143.57 h 188.373 v 143.57 c 0,5.168 4.12,9.801 9.78,9.801 h 33.96 c 5.15,0 9.78,-4.633 9.78,-9.801 V 14.9414 c 0,-5.17968 -4.63,-9.81249 -9.78,-9.81249 h -33.96 c -5.66,0 -9.78,4.63281 -9.78,9.81249 V 163.672 H 940.137 V 14.9414 c 0,-5.17968 -4.114,-9.81249 -9.778,-9.81249 h -33.957 c -5.152,0 -9.785,4.63281 -9.785,9.81249 V 355.621"
         style="fill:#1d5085;fill-opacity:1;fill-rule:nonzero;stroke:none"
         id="path52" /><path
         d="m 1457.92,127.641 -63.32,141.007 h -2.56 l -62.78,-141.007 z m -233.14,-109.1097 158,346.3597 c 1.54,3.089 6.18,5.66 8.75,5.66 h 5.15 c 2.56,0 7.19,-2.571 8.74,-5.66 L 1562.39,18.5313 c 3.09,-6.6993 -1.03,-13.40239 -8.74,-13.40239 h -32.43 c -6.17,0 -9.78,3.11328 -11.84,7.74219 l -31.9,70.5078 h -168.31 c -10.28,-23.668 -21.09,-46.8398 -31.39,-70.5078 -1.54,-3.58985 -5.65,-7.74219 -11.83,-7.74219 h -32.43 c -7.71,0 -11.83,6.70309 -8.74,13.40239"
         style="fill:#1d5085;fill-opacity:1;fill-rule:nonzero;stroke:none"
         id="path54" /><path
         d="m 1605.15,355.621 c 0,5.168 4.11,9.801 9.77,9.801 h 33.97 c 5.14,0 9.77,-4.633 9.77,-9.801 V 53.0313 h 139.47 c 5.67,0 9.78,-4.6524 9.78,-9.7891 V 14.9414 c 0,-5.17968 -4.11,-9.81249 -9.78,-9.81249 h -183.21 c -5.66,0 -9.77,4.63281 -9.77,9.81249 V 355.621"
         style="fill:#1d5085;fill-opacity:1;fill-rule:nonzero;stroke:none"
         id="path56" /><path
         d="m 1892.34,362.832 c 1.02,4.117 5.15,7.719 9.27,7.719 h 8.22 c 3.09,0 7.72,-2.571 8.76,-5.66 L 2026.15,101.91 h 2.06 l 107.04,262.981 c 1.03,3.089 5.14,5.66 8.76,5.66 h 8.22 c 4.12,0 8.23,-3.602 9.28,-7.719 L 2224.8,16.9922 c 1.54,-7.23048 -2.06,-11.86329 -9.26,-11.86329 h -33.46 c -4.62,0 -8.73,3.64062 -9.78,7.23049 l -38.08,230.0386 c -0.49,0 -1.54,0 -1.54,0 L 2040.03,5.66016 C 2039.02,2.58203 2035.92,0 2031.29,0 h -9.26 c -4.12,0 -7.72,2.58203 -8.75,5.66016 L 1920.13,242.398 c -0.51,0 -1.54,0 -2.06,0 L 1881.01,12.3594 c -0.51,-3.58987 -5.15,-7.23049 -9.26,-7.23049 h -33.45 c -7.21,0 -10.82,4.63281 -9.78,11.86329 l 63.82,345.8398"
         style="fill:#1d5085;fill-opacity:1;fill-rule:nonzero;stroke:none"
         id="path58" /><path
         d="m 2268.6,57.1289 c 4.63,6.7031 8.74,14.4102 13.37,21.1133 4.63,6.6797 11.84,8.7461 17.51,4.1172 3.07,-2.5781 42.72,-35.5274 82.34,-35.5274 35.51,0 58.16,21.6289 58.16,47.8789 0,30.8711 -26.77,50.4301 -77.72,71.5191 -52.5,22.149 -93.66,49.43 -93.66,109.122 0,40.14 30.88,95.199 112.71,95.199 51.46,0 90.05,-26.742 95.21,-30.36 4.1,-2.57 8.22,-9.781 3.07,-17.5 -4.11,-6.171 -8.73,-13.371 -12.86,-19.55 -4.1,-6.7 -10.8,-9.762 -18,-5.149 -3.62,2.067 -39.63,25.738 -69.49,25.738 -43.23,0 -58.15,-27.289 -58.15,-46.308 0,-29.352 22.64,-47.363 65.35,-64.863 59.71,-24.18 110.67,-52.477 110.67,-115.2777 C 2497.11,43.75 2449.23,0 2382.34,0 c -62.78,0 -102.42,32.9492 -110.68,40.6602 -4.61,4.1211 -8.22,7.7187 -3.06,16.4687"
         style="fill:#1d5085;fill-opacity:1;fill-rule:nonzero;stroke:none"
         id="path60" /><path
         d="m 2608.81,317.031 h -83.89 c -5.66,0 -9.78,4.629 -9.78,9.789 v 28.801 c 0,5.168 4.12,9.801 9.78,9.801 h 221.3 c 5.67,0 9.77,-4.633 9.77,-9.801 V 326.82 c 0,-5.16 -4.1,-9.789 -9.77,-9.789 h -83.87 V 14.9414 c 0,-5.17968 -4.65,-9.81249 -9.81,-9.81249 h -33.95 c -5.15,0 -9.78,4.63281 -9.78,9.81249 V 317.031"
         style="fill:#1d5085;fill-opacity:1;fill-rule:nonzero;stroke:none"
         id="path62" /><path
         d="m 2958.78,127.641 -63.29,141.007 h -2.57 l -62.79,-141.007 z m -233.12,-109.1097 158,346.3597 c 1.54,3.089 6.18,5.66 8.74,5.66 h 5.16 c 2.56,0 7.18,-2.571 8.74,-5.66 L 3063.27,18.5313 c 3.08,-6.6993 -1.03,-13.40239 -8.74,-13.40239 h -32.43 c -6.18,0 -9.78,3.11328 -11.83,7.74219 l -31.92,70.5078 h -168.29 c -10.29,-23.668 -21.11,-46.8398 -31.39,-70.5078 -1.56,-3.58985 -5.68,-7.74219 -11.83,-7.74219 h -32.44 c -7.72,0 -11.84,6.70309 -8.74,13.40239"
         style="fill:#1d5085;fill-opacity:1;fill-rule:nonzero;stroke:none"
         id="path64" /><path
         d="m 3226.44,54.0391 c 75.64,0 130.72,55.5899 130.72,131.7619 0,75.64 -55.08,130.719 -130.72,130.719 H 3158.5 V 54.0391 Z M 3106.01,355.621 c 0,5.168 4.12,9.801 9.26,9.801 h 118.39 c 99.3,0 180.62,-80.813 180.62,-179.621 0,-99.8401 -81.32,-180.67209 -180.62,-180.67209 h -118.39 c -5.14,0 -9.26,4.63281 -9.26,9.81249 V 355.621"
         style="fill:#1d5085;fill-opacity:1;fill-rule:nonzero;stroke:none"
         id="path66" /></g></g></svg>
